 <svg  version="1.0" xmlns="http://www.w3.org/2000/svg"  width="131.000000pt" height="128.000000pt" viewBox="0 0 131.000000 128.000000"  preserveAspectRatio="xMidYMid meet">  <g transform="translate(0.000000,128.000000) scale(0.100000,-0.100000)" fill="#1935c3" stroke="none"> <path d="M0 640 l0 -640 655 0 655 0 0 640 0 640 -655 0 -655 0 0 -640z m567 474 c-3 -3 -12 -4 -19 -1 -8 3 -5 6 6 6 11 1 17 -2 13 -5z m-69 -19 c-145 -53 -281 -210 -323 -372 -19 -74 -19 -203 0 -278 36 -135 151 -279 274 -343 35 -17 58 -32 51 -32 -27 0 -156 71 -203 111 -82 70 -150 190 -177 309 -36 163 34 369 167 490 56 51 199 131 232 129 9 0 -1 -6 -21 -14z m293 -366 l99 -91 0 36 c0 34 1 36 35 36 l35 0 0 -67 0 -68 47 -43 c55 -51 71 -58 -170 77 l-146 82 -173 -96 -173 -96 105 98 c58 54 134 126 170 160 36 34 67 63 69 63 2 0 48 -41 102 -91z m-111 -164 c0 -20 -5 -25 -25 -25 -20 0 -25 5 -25 25 0 20 5 25 25 25 20 0 25 -5 25 -25z m80 0 c0 -20 -5 -25 -25 -25 -20 0 -25 5 -25 25 0 20 5 25 25 25 20 0 25 -5 25 -25z m441 -86 c-25 -113 -108 -244 -197 -307 -165 -119 -393 -123 -560 -11 -71 48 -128 112 -168 187 -21 41 -36 75 -34 77 2 2 17 -21 32 -52 49 -93 151 -182 257 -223 78 -31 226 -38 304 -15 96 27 170 72 238 145 67 70 100 130 119 210 6 28 13 48 16 46 2 -3 -1 -28 -7 -57z m-521 11 c0 -25 -4 -30 -25 -30 -21 0 -25 5 -25 30 0 25 4 30 25 30 21 0 25 -5 25 -30z m80 0 c0 -25 -4 -30 -25 -30 -21 0 -25 5 -25 30 0 25 4 30 25 30 21 0 25 -5 25 -30z m-223 -427 c-4 -3 -10 -3 -14 0 -3 4 0 7 7 7 7 0 10 -3 7 -7z"/> </g> </svg> 